<svg width="32" height="32" viewBox="0 0 32 32" fill="none" xmlns="http://www.w3.org/2000/svg">
  <rect width="32" height="32" rx="6" fill="#0F172A"/>
  <path d="M10.52 20.68C9.55333 20.68 8.72667 20.48 8.04 20.08C7.36 19.6667 6.84 19.1067 6.48 18.4C6.13333 17.68 5.96 16.8533 5.96 15.92C5.96 14.9867 6.13333 14.16 6.48 13.44C6.84 12.72 7.36 12.16 8.04 11.76C8.72667 11.3467 9.55333 11.14 10.52 11.14C11.2933 11.14 11.9733 11.28 12.56 11.56C13.1467 11.84 13.6133 12.2267 13.96 12.72C14.3067 13.2133 14.5067 13.7867 14.56 14.44H12.8C12.72 13.9467 12.5067 13.5467 12.16 13.24C11.8267 12.9333 11.3733 12.78 10.8 12.78C10.3333 12.78 9.92 12.9 9.56 13.14C9.2 13.38 8.92 13.7333 8.72 14.2C8.52 14.6533 8.42 15.2267 8.42 15.92C8.42 16.6133 8.52 17.1933 8.72 17.66C8.92 18.1267 9.2 18.48 9.56 18.72C9.92 18.96 10.3333 19.08 10.8 19.08C11.1467 19.08 11.4533 19.0133 11.72 18.88C11.9867 18.7467 12.2 18.5533 12.36 18.3C12.5333 18.0467 12.6533 17.7533 12.72 17.42H14.48C14.4267 18.06 14.24 18.6267 13.92 19.12C13.6 19.6 13.1533 19.9733 12.58 20.24C12.0067 20.5333 11.32 20.68 10.52 20.68ZM21.5219 20.68C20.5086 20.68 19.6552 20.4867 18.9619 20.1C18.2819 19.7 17.7619 19.1467 17.4019 18.44C17.0419 17.7333 16.8619 16.8933 16.8619 15.92C16.8619 14.9467 17.0419 14.1067 17.4019 13.4C17.7619 12.6933 18.2819 12.1467 18.9619 11.76C19.6552 11.36 20.5086 11.16 21.5219 11.16C22.5352 11.16 23.3819 11.36 24.0619 11.76C24.7552 12.1467 25.2752 12.6933 25.6219 13.4C25.9819 14.1067 26.1619 14.9467 26.1619 15.92C26.1619 16.8933 25.9819 17.7333 25.6219 18.44C25.2752 19.1467 24.7552 19.7 24.0619 20.1C23.3819 20.4867 22.5352 20.68 21.5219 20.68ZM21.5219 19.06C22.0152 19.06 22.4352 18.94 22.7819 18.7C23.1286 18.46 23.3952 18.1 23.5819 17.62C23.7686 17.14 23.8619 16.5733 23.8619 15.92C23.8619 15.2667 23.7686 14.7 23.5819 14.22C23.3952 13.74 23.1286 13.38 22.7819 13.14C22.4352 12.9 22.0152 12.78 21.5219 12.78C21.0286 12.78 20.6086 12.9 20.2619 13.14C19.9152 13.38 19.6486 13.74 19.4619 14.22C19.2752 14.7 19.1819 15.2667 19.1819 15.92C19.1819 16.5733 19.2752 17.14 19.4619 17.62C19.6486 18.1 19.9152 18.46 20.2619 18.7C20.6086 18.94 21.0286 19.06 21.5219 19.06Z" fill="#F1F5F9"/>
</svg> 